Coordinates
version=1
nRows=7
nColumns=40
inDegrees=yes

Units are S.I. units (second, meters, Newtons, ...)
Angles are in degrees.

endheader
time	pelvis_tilt	pelvis_list	pelvis_rotation	pelvis_tx	pelvis_ty	pelvis_tz	hip_flexion_r	hip_adduction_r	hip_rotation_r	knee_angle_r	knee_angle_r_beta	ankle_angle_r	subtalar_angle_r	mtp_angle_r	hip_flexion_l	hip_adduction_l	hip_rotation_l	knee_angle_l	knee_angle_l_beta	ankle_angle_l	subtalar_angle_l	mtp_angle_l	lumbar_extension	lumbar_bending	lumbar_rotation	arm_flex_r	arm_add_r	arm_rot_r	elbow_flex_r	pro_sup_r	wrist_flex_r	wrist_dev_r	arm_flex_l	arm_add_l	arm_rot_l	elbow_flex_l	pro_sup_l	wrist_flex_l	wrist_dev_l
      0.62000000	     -7.67331881	     -4.12848288	     -6.31418305	      0.17475134	      0.90819166	      0.05000554	     29.89661508	      7.71057596	     -5.91792950	    -41.06497922	     -0.71671909	      8.46825381	     -9.57626101	     -8.95938759	      8.47312129	      7.61637781	     13.76044299	    -80.96724832	     -1.41314507	     -7.20265850	     19.26579656	     20.19531322	     -2.74519285	      7.02541308	     -8.27149467	    -28.02059311	    -17.06576719	    -10.84493341	     97.44996211	     89.95437384	      0.00000000	      0.00000000	      5.81618627	     46.99457584	    -36.83570185	     73.12740031	     89.95437384	      0.00000000	      0.00000000
      0.63000000	     -7.89478528	     -4.33004430	     -6.98430963	      0.20958639	      0.90352792	      0.05340468	     28.51347002	      8.73530698	     -4.19323873	    -43.30142334	     -0.75575241	     11.54877243	    -10.21095038	     -9.38187231	     13.06402831	      8.70231244	     13.47358178	    -85.46933620	     -1.49172133	     -4.56620227	     19.17612482	     19.48156543	     -3.22976389	      7.12218692	     -6.49971855	    -24.22337382	    -16.40361845	     -9.03285327	     98.36592108	     89.95437384	      0.00000000	      0.00000000	      2.45050407	     48.67468415	    -33.80283285	     71.11844006	     89.95437384	      0.00000000	      0.00000000
      0.64000000	    -10.05569549	     -4.78668443	     -6.39473575	      0.24417837	      0.89851926	      0.05617822	     28.02269225	      9.54091989	     -4.26551107	    -42.95788520	     -0.74975654	     13.69578220	    -11.25122733	     -9.73210219	     20.65307194	      9.83387938	     11.22030665	    -89.56796166	     -1.56325584	     -2.78478569	     19.04438255	     19.02950041	     -1.12980147	      7.48486464	     -6.39994584	    -20.33197131	    -15.73654632	     -6.71401138	     99.06901778	     89.95437384	      0.00000000	      0.00000000	     -3.00220017	     50.35958930	    -28.66999156	     70.88806614	     89.95437384	      0.00000000	      0.00000000
      0.65000000	    -12.72177549	     -4.90246889	     -6.46926030	      0.27900645	      0.89439560	      0.05924261	     27.77147811	     10.14012732	     -3.96796448	    -42.01601770	     -0.73331785	     15.19414922	    -11.57626124	    -10.09465908	     28.56371406	     10.44066016	      9.44136518	    -92.36954266	     -1.61215265	     -1.05932555	     18.87409742	     18.45436031	      1.71231954	      7.59606572	     -5.40464531	    -16.99412067	    -15.07491597	     -4.92789370	    100.60465674	     89.95437384	      0.00000000	      0.00000000	     -8.83392189	     51.81411693	    -23.24828032	     72.02331780	     89.95437384	      0.00000000	      0.00000000
      0.66000000	    -14.16167677	     -4.43442489	     -5.90756835	      0.31628213	      0.89329478	      0.05942059	     25.87056911	      9.46060669	     -3.81677770	    -40.72196095	     -0.71073230	     16.39787475	    -11.17479321	    -10.62303324	     34.62127167	      9.42067047	      7.66929234	    -93.39206128	     -1.62999896	      0.32483857	     18.79984390	     18.08041636	      3.54070707	      7.06431102	     -4.68643166	    -13.96926763	    -14.64454352	     -3.48758359	    103.01504407	     89.95437384	      0.00000000	      0.00000000	    -14.31216205	     53.18501518	    -18.54335869	     74.04952679	     89.95437384	      0.00000000	      0.00000000
      0.67000000	    -14.47468749	     -2.88344896	     -5.28688711	      0.35563433	      0.89519689	      0.05846159	     22.64361458	      7.28838926	     -3.98801172	    -39.19918508	     -0.68415484	     17.00780757	    -10.42617691	    -11.22742983	     38.62654793	      6.87689110	      6.92155061	    -92.63401594	     -1.61676858	      1.53499739	     18.73556141	     17.71077249	      4.37776577	      5.16562719	     -3.53824719	    -11.21576819	    -14.50318987	     -2.10730882	    105.70410595	     89.95437384	      0.00000000	      0.00000000	    -19.11934021	     54.83202139	    -14.89254101	     76.71638305	     89.95437384	      0.00000000	      0.00000000
      0.68000000	    -13.86203828	     -0.82161968	     -5.14375665	      0.39694508	      0.90035806	      0.05751522	     18.23654505	      4.34038555	     -4.52286445	    -37.21968823	     -0.64960611	     16.73681566	     -8.96123097	    -11.63247819	     40.74005606	      4.10793083	      7.26229983	    -90.27431615	     -1.57558405	      2.30264409	     18.64529742	     17.36803352	      4.28851753	      2.67871241	     -1.52763340	     -8.71128457	    -14.83603123	     -0.81026484	    108.45499669	     89.95437384	      0.00000000	      0.00000000	    -23.08024575	     56.43499118	    -12.13603606	     79.46879314	     89.95437384	      0.00000000	      0.00000000
